<svg width="167" height="33" viewBox="0 0 167 33" fill="none" xmlns="http://www.w3.org/2000/svg">
<g clip-path="url(#clip0_433_610)">
<path d="M30.7238 4.90417C29.9313 4.0975 28.8958 3.69417 27.8692 3.69417C26.8427 3.69417 25.7891 4.0975 24.9967 4.91333L20.2961 9.7075L15.5865 4.91333C14.7941 4.10667 13.7585 3.70333 12.723 3.70333C11.6874 3.70333 10.6519 4.10667 9.85942 4.91333L4.1233 10.725C2.54744 12.3292 2.54744 14.9417 4.1233 16.555L20.2781 33L36.4329 16.555C38.0177 14.9508 38.0087 12.3383 36.4329 10.725L30.7148 4.90417H30.7238ZM106.869 27.2617C104.258 27.2617 103.492 26.2075 103.492 22.3483V12.3842H108.643V6.8475H103.573C103.573 4.88583 103.727 1.98917 103.889 0H99.116C98.4857 4.84 97.1079 7.33333 92.7675 8.06667C92.7495 9.36833 92.8216 11.1467 92.7675 12.3842H95.6581C95.6131 15.1342 95.5321 20.1575 95.5321 24.7317C95.5321 30.5708 98.5037 32.9633 104.087 32.9633C106.806 32.9633 108.805 32.56 109.472 32.3675L109.129 26.675C108.643 27.005 107.68 27.2617 106.869 27.2617ZM79.0891 21.6333C86.8964 21.6333 90.9035 19.14 90.9035 13.7775C90.9035 9.14833 87.5987 6.06833 80.4218 6.06833C71.7231 6.06833 68.2472 10.0192 67.4548 17.0958C66.1851 17.0133 64.7983 16.9858 62.9073 16.9767C62.9073 16.5917 62.9073 16.2067 62.9073 15.8125C62.9073 8.635 59.9897 6.04083 52.2095 6.04083C48.4094 6.04083 45.0596 6.61833 43.0155 7.46167L43.3216 13.1908C45.1046 12.2283 47.7611 11.3025 50.2824 11.3025C53.8394 11.3025 54.9199 12.7967 54.9199 16.3808V16.9125C54.6678 16.9125 54.0465 16.9033 53.7043 16.9033C44.8435 16.9033 40.7372 19.635 40.7372 24.695C40.7372 29.755 43.2856 32.9817 50.5526 32.9817C54.3797 32.9817 58.1617 32.4317 63.0334 32.4317C62.6732 30.3417 62.6642 27.335 62.6642 25.2725C62.6642 24.1817 62.7182 22.88 62.7722 21.4042C64.8524 21.4225 66.3832 21.4775 67.3917 21.5233C68.1391 29.9108 72.4075 33.0183 81.2953 33.0183C84.5821 33.0183 87.9049 32.45 89.6428 31.625L89.3367 25.8958C87.6077 26.9133 85.2034 27.7475 82.565 27.7475C78.1976 27.7475 75.8293 25.4283 75.8293 21.7617V21.5875C76.6038 21.6242 78.1526 21.6517 79.0711 21.6517L79.0891 21.6333ZM52.4436 27.9767C49.7421 27.9767 48.5895 27.06 48.5895 24.7592C48.5895 22.4583 50.0573 21.285 53.7493 21.285C54.0915 21.285 54.5057 21.2758 54.8029 21.3033C54.7849 23.4483 54.7399 25.9508 54.8569 27.6925C54.2176 27.8667 53.2721 27.9767 52.4526 27.9767H52.4436ZM75.8023 17.2058V17.0775C75.8023 13.4842 76.9189 10.8442 80.1607 10.8442C81.9977 10.8442 83.1773 11.825 83.1773 13.6033C83.1773 16.1058 81.5384 17.27 78.1346 17.27C77.3061 17.27 76.4417 17.2608 75.8023 17.2058ZM161.205 15.8125C161.205 8.635 158.287 6.04083 150.516 6.04083C146.707 6.04083 143.366 6.61833 141.322 7.46167L141.628 13.1908C143.411 12.2283 146.059 11.3025 148.589 11.3025C152.146 11.3025 153.226 12.7967 153.226 16.3808V16.9125C152.974 16.9125 152.353 16.9033 152.011 16.9033C143.141 16.9033 139.044 19.635 139.044 24.695C139.044 29.755 141.592 32.9817 148.859 32.9817C152.686 32.9817 156.468 32.4317 161.331 32.4317C160.98 30.3417 160.971 27.335 160.971 25.2725C160.971 22.9533 161.205 19.6717 161.205 15.8308V15.8125ZM150.741 27.9767C148.031 27.9767 146.887 27.06 146.887 24.7592C146.887 22.4583 148.355 21.285 152.047 21.285C152.38 21.285 152.794 21.2758 153.091 21.3033C153.082 23.4483 153.028 25.9508 153.154 27.6925C152.515 27.8667 151.57 27.9767 150.75 27.9767H150.741ZM135.793 20.4967C135.793 18.3333 135.838 15.455 135.838 15.455C135.838 8.97417 133.046 6.06833 125.149 6.06833C120.719 6.06833 117.558 6.85667 112.614 6.85667C112.894 11.4033 112.903 17.0225 112.884 20.5058C112.903 24.0442 112.767 30.3875 112.614 32.4317H121.097C120.899 30.3783 120.737 24.4842 120.755 20.5058C120.755 18.2417 120.782 15.5008 120.872 11.825C121.718 11.5317 122.79 11.3117 123.952 11.3117C126.923 11.3117 127.878 12.7325 127.878 16.6283C127.878 16.6283 127.923 19.0758 127.923 20.515C127.923 24.0533 127.806 30.3967 127.653 32.4408H136.135C135.937 30.3875 135.766 24.4933 135.793 20.515V20.4967ZM165.509 7.08583C165.509 6.52667 165.176 6.28833 164.519 6.28833H163.483V9.05667H163.933V7.87417H164.357L165.059 9.05667H165.563L164.798 7.8375C165.203 7.79167 165.509 7.58083 165.509 7.08583ZM163.933 7.48917V6.6825H164.474C164.744 6.6825 165.068 6.71917 165.068 7.05833C165.068 7.46167 164.771 7.48917 164.438 7.48917H163.942H163.933ZM164.42 5.12417C163.123 5.12417 162.006 6.12333 162.006 7.62667C162.006 9.0475 163.015 10.1292 164.42 10.1292C165.707 10.1292 166.824 9.13 166.824 7.62667C166.824 6.12333 165.707 5.12417 164.42 5.12417ZM164.42 9.68917C163.249 9.68917 162.529 8.76333 162.529 7.62667C162.529 6.4075 163.357 5.56417 164.42 5.56417C165.482 5.56417 166.302 6.41667 166.302 7.62667C166.302 8.83667 165.473 9.68917 164.42 9.68917Z" fill="white"/>
<path d="M12.1873 3C11.1017 3 10.0203 3.42666 9.19451 4.27999L3.2005 10.4429C1.54901 12.141 1.54901 14.9035 3.20469 16.6059L20.1178 34L37.031 16.6059C38.6867 14.9035 38.6825 12.1453 37.031 10.4429L31.0412 4.2843C30.2154 3.43097 29.1298 3.00431 28.0484 3.00431C26.9669 3.00431 25.8729 3.43528 25.043 4.29292L20.1178 9.35687L15.1885 4.27999C14.3628 3.42666 13.2771 3 12.1873 3Z" fill="white"/>
</g>
<defs>
<clipPath id="clip0_433_610">
<rect width="166.824" height="33" fill="white"/>
</clipPath>
</defs>
</svg>
