<svg width="188" height="51" viewBox="0 0 188 51" fill="none" xmlns="http://www.w3.org/2000/svg">
<path d="M8.00711 1.571H4.90645V19.995H3.12482V1.571H0V0H8.00711V1.571Z" fill="#D9D9D9"/>
<path d="M17.0529 19.995H15.3493V9.08326L11.5947 9.18515V19.995H9.89111V0H11.5947V7.90871C12.2691 7.82349 12.9435 7.73828 13.6197 7.65306C14.4743 7.5419 15.145 7.48632 15.6317 7.48632C16.5792 7.48632 17.0548 7.95132 17.0548 8.87947V19.995H17.0529Z" fill="#D9D9D9"/>
<path d="M26.7782 18.5519C26.7782 19.5153 26.2989 19.9951 25.344 19.9951H21.2438C20.287 19.9951 19.8096 19.5134 19.8096 18.5519V9.00738C19.8096 8.04588 20.287 7.56421 21.2438 7.56421H25.344C26.3007 7.56421 26.7782 8.04588 26.7782 9.00738V13.4795L26.2023 14.0798H21.4612V18.5779H25.1247V16.3029H26.7782V18.5519ZM25.1247 12.7255V8.98144H21.4612V12.7255H25.1247Z" fill="#D9D9D9"/>
<path d="M42.973 18.5778C42.973 18.9946 42.8411 19.3355 42.5754 19.6004C42.3097 19.8653 41.9679 19.9969 41.5499 19.9969H34.938V0H41.4979C41.9159 0 42.2577 0.131534 42.5234 0.396455C42.7872 0.661375 42.921 1.00225 42.921 1.41909V7.36035C42.921 7.88834 42.6813 8.33111 42.2038 8.68866C41.7338 8.97025 41.2638 9.24999 40.7938 9.53158L42.306 10.5023C42.75 10.7747 42.973 11.2008 42.973 11.7806V18.5778ZM41.1282 7.59007V1.571H36.7215V8.79055H39.3484L41.13 7.59007H41.1282ZM41.1802 18.424V11.512L39.3744 10.3375H36.7215V18.4259H41.1802V18.424Z" fill="white"/>
<path d="M53.018 19.9951H51.3404V19.6505C50.6568 19.745 49.9787 19.8339 49.3024 19.9191C48.4831 20.021 47.8032 20.0729 47.2644 20.0729C46.3411 20.0729 45.8804 19.6135 45.8804 18.6927V7.56421H47.558V18.476L51.3386 18.3741V7.56421H53.0162V19.9951H53.018Z" fill="white"/>
<path d="M62.5133 18.5519C62.5133 19.5153 62.0303 19.9951 61.0661 19.9951H57.1591C56.1931 19.9951 55.7119 19.5134 55.7119 18.5519V15.7286H57.3895V18.526H60.8357V16.0472L56.377 12.405C55.9497 12.0642 55.7361 11.6214 55.7361 11.0767V9.00738C55.7361 8.04588 56.2191 7.56421 57.1833 7.56421H61.0401C62.0043 7.56421 62.4873 8.04588 62.4873 9.00738V11.4861H60.8339V9.03331H57.3876V11.2046L61.8854 14.8467C62.3034 15.1784 62.5133 15.6304 62.5133 16.201V18.5519Z" fill="white"/>
<path d="M67.0221 4.84271H65.2925V2.69556H67.0221V4.84271ZM66.9979 19.9951H65.3203V7.56417H66.9979V19.9951Z" fill="white"/>
<path d="M77.0539 19.995H75.3503V9.08326L71.5957 9.18516V19.995H69.8921V7.56414H71.5957V7.90872C72.2626 7.8235 72.9314 7.73458 73.6077 7.64009C74.427 7.5382 75.1032 7.48633 75.6327 7.48633C76.5802 7.48633 77.0558 7.95133 77.0558 8.87948V19.995H77.0539Z" fill="white"/>
<path d="M86.7796 18.5519C86.7796 19.5153 86.3022 19.9951 85.3454 19.9951H81.2453C80.2885 19.9951 79.811 19.5134 79.811 18.5519V9.00738C79.811 8.04588 80.2885 7.56421 81.2453 7.56421H85.3454C86.3022 7.56421 86.7796 8.04588 86.7796 9.00738V13.4795L86.2037 14.0798H81.4626V18.5779H85.1281V16.3029H86.7815V18.5519H86.7796ZM85.1262 12.7255V8.98144H81.4608V12.7255H85.1262Z" fill="white"/>
<path d="M96.3121 18.5519C96.3121 19.5153 95.8291 19.9951 94.8649 19.9951H90.958C89.9919 19.9951 89.5107 19.5134 89.5107 18.5519V15.7286H91.1883V18.526H94.6346V16.0472L90.1758 12.405C89.7485 12.0642 89.5349 11.6214 89.5349 11.0767V9.00738C89.5349 8.04588 90.0179 7.56421 90.9821 7.56421H94.8389C95.805 7.56421 96.2861 8.04588 96.2861 9.00738V11.4861H94.6327V9.03331H91.1865V11.2046L95.6842 14.8467C96.1022 15.1784 96.3121 15.6304 96.3121 16.201V18.5519Z" fill="white"/>
<path d="M105.729 18.5519C105.729 19.5153 105.246 19.9951 104.282 19.9951H100.375C99.4089 19.9951 98.9277 19.5134 98.9277 18.5519V15.7286H100.605V18.526H104.052V16.0472L99.5928 12.405C99.1655 12.0642 98.9519 11.6214 98.9519 11.0767V9.00738C98.9519 8.04588 99.4349 7.56421 100.399 7.56421H104.256C105.222 7.56421 105.703 8.04588 105.703 9.00738V11.4861H104.05V9.03331H100.603V11.2046L105.101 14.8467C105.519 15.1784 105.729 15.6304 105.729 16.201V18.5519Z" fill="white"/>
<path d="M8.05928 48.8954C8.05928 49.8588 7.57625 50.3386 6.61205 50.3386H2.33168C1.37492 50.3386 0.897461 49.8569 0.897461 48.8954V39.3509C0.897461 38.3875 1.37492 37.9077 2.33168 37.9077H6.61019C7.57439 37.9077 8.05742 38.3894 8.05742 39.3509V48.8954H8.05928ZM6.35568 48.8454V39.4028H2.60106V48.8454H6.35568Z" fill="#D9D9D9"/>
<path d="M15.5554 31.8386H13.1458V37.9077H15.273V39.4028H13.1458V50.3405H11.4682V39.4028H10.021V37.9077H11.4682V31.7886C11.4682 30.8253 11.9457 30.3455 12.9024 30.3455H15.5554V31.8405V31.8386Z" fill="#D9D9D9"/>
<path d="M21.6826 50.9999V45.5458H23.5051V31.0011H21.6826V25.5471H38.0926C39.0419 25.5471 39.9151 26.4178 39.9151 27.3645V36.4552C39.9151 37.4778 39.1181 38.2726 38.0926 38.2726C39.0419 38.2726 39.9151 39.1433 39.9151 40.09V49.1806C39.9151 50.2033 39.1181 50.998 38.0926 50.998H21.6826V50.9999ZM34.4438 36.4552V31.0011H28.9745V36.4552H34.4438ZM34.4438 45.5458V40.0918H28.9745V45.5458H34.4438Z" fill="white"/>
<path d="M41.7002 51V47.3634H43.5227V29.182H41.7002V25.5454H48.9939V47.3634H50.8164V51H41.7002Z" fill="white"/>
<path d="M54.3909 51C53.2892 51 52.5684 50.2812 52.5684 49.1826V34.6379C52.5684 33.6153 53.3654 32.8206 54.3909 32.8206H65.3296C66.2789 32.8206 67.1521 33.6913 67.1521 34.6379V49.1826C67.1521 50.2053 66.3551 51 65.3296 51H54.3909ZM61.6846 47.3634V36.4553H58.0377V47.3634H61.6846Z" fill="white"/>
<path d="M70.7507 51C69.649 51 68.9282 50.2812 68.9282 49.1826V34.6379C68.9282 33.6153 69.7252 32.8206 70.7507 32.8206H81.6894C82.6388 32.8206 83.5119 33.6913 83.5119 34.6379V38.2746H78.0426V36.4572H74.3957V47.3653H78.0426V45.5479H83.5119V49.1845C83.5119 50.2071 82.715 51.0019 81.6894 51.0019H70.7507V51Z" fill="white"/>
<path d="M85.2881 51V47.3634H87.1106V29.182H85.2881V25.5454H92.5818V40.0901L96.2287 32.8168H101.698V36.4535H99.8755L98.053 40.0901H101.7V47.3634H103.522V51H96.2287V43.7267H92.5818V51H85.2881Z" fill="white"/>
<path d="M107.137 51C106.036 51 105.315 50.2812 105.315 49.1826V34.6379C105.315 33.6153 106.112 32.8206 107.137 32.8206H118.076C119.026 32.8206 119.899 33.6913 119.899 34.6379V38.2746H114.429V36.4572H110.782V47.3653H114.429V45.5479H119.899V49.1845C119.899 50.2071 119.102 51.0019 118.076 51.0019H107.137V51Z" fill="white"/>
<path d="M121.675 51V47.3634H123.497V29.182H121.675V25.5454H128.968V34.6361L130.791 32.8187H136.26C137.21 32.8187 138.083 33.6894 138.083 34.6361V47.3634H139.905V51H132.611V36.4553H128.965V51H121.671H121.675Z" fill="white"/>
<path d="M143.524 50.9999C142.422 50.9999 141.702 50.2811 141.702 49.1825V41.9093C141.702 40.8866 142.499 40.0919 143.524 40.0919H150.818V36.4552H147.171V38.2726H141.702V34.636C141.702 33.6134 142.499 32.8186 143.524 32.8186H154.463C155.412 32.8186 156.285 33.6893 156.285 34.636V47.3633H158.108V50.9999H150.814V49.1825L148.992 50.9999H143.522H143.524ZM150.816 47.3633V43.7267H147.169V47.3633H150.816Z" fill="white"/>
<path d="M159.903 51V47.3633H161.725V36.4553H159.903V32.8186H167.197V47.3633H169.019V51H159.903ZM163.55 31.0012C162.448 31.0012 161.727 30.2824 161.727 29.1839V27.3665C161.727 26.3438 162.524 25.5491 163.55 25.5491H165.372C166.322 25.5491 167.195 26.4198 167.195 27.3665V29.1839C167.195 30.2065 166.398 31.0012 165.372 31.0012H163.55Z" fill="white"/>
<path d="M171.592 50.9999V36.4552H169.77V32.8186H177.063V34.636L178.886 32.8186H184.355C185.304 32.8186 186.178 33.6893 186.178 34.636V47.3633H188V50.9999H180.706V36.4552H177.06V50.9999H171.59H171.592Z" fill="white"/>
</svg>
