<svg width="201" height="39" viewBox="0 0 201 39" fill="none" xmlns="http://www.w3.org/2000/svg">
<g clip-path="url(#clip0_433_615)">
<path d="M9.07141 39.0001C14.0814 39.0001 18.1428 34.8952 18.1428 29.8316C18.1428 24.768 14.0814 20.6631 9.07141 20.6631C4.06141 20.6631 0 24.768 0 29.8316C0 34.8952 4.06141 39.0001 9.07141 39.0001Z" fill="#8ABE1F"/>
<path d="M9.07143 18.3262C14.0785 18.3262 18.1375 14.2238 18.1375 9.16311C18.1375 4.10246 14.0785 0 9.07143 0C4.06438 0 0.00537109 4.10246 0.00537109 9.16311C0.00537109 14.2238 4.06438 18.3262 9.07143 18.3262Z" fill="#D60548"/>
<path d="M79.9138 19.5217C79.9138 25.2284 75.3326 29.8586 69.6864 29.8586C64.0402 29.8586 59.459 25.2284 59.459 19.5217C59.459 13.8151 64.0402 9.18481 69.6864 9.18481C75.3326 9.18481 79.9138 13.8151 79.9138 19.5217ZM74.4924 19.5866C74.4977 17.423 73.3792 15.6542 71.8004 14.8698C70.0664 14.0044 67.9685 14.1883 66.4967 15.5243C65.1694 16.7252 64.6771 18.4723 64.8965 20.2033C65.0891 21.6962 65.9776 23.2053 67.444 24.0438C69.0174 24.9417 70.8745 24.866 72.373 23.8274C73.5611 23.0052 74.487 21.4906 74.4924 19.5866Z" fill="white"/>
<path d="M179.047 19.5325C179.047 25.2446 174.465 29.8748 168.814 29.8748C163.162 29.8748 158.581 25.2446 158.581 19.5325C158.581 13.8204 163.162 9.19019 168.814 9.19019C174.465 9.19019 179.047 13.8204 179.047 19.5325ZM173.625 19.5866C173.641 16.5412 171.367 14.2802 168.701 14.3451C165.876 14.41 163.778 16.7955 163.895 19.7326C164.013 22.5941 166.181 24.8659 168.964 24.7253C171.474 24.6009 173.609 22.5075 173.625 19.592V19.5866Z" fill="white"/>
<path d="M155.622 29.177L150.254 29.1987L150.248 21.8855H144.174L144.179 29.1933L138.822 29.1825L138.828 9.77982H144.179L144.174 17.0173H150.254V9.79064L155.611 9.77441L155.622 29.177Z" fill="white"/>
<path d="M34.5518 29.1282C30.2008 30.3236 25.6196 29.1012 22.2104 26.3046L25.1754 22.6048C28.2045 25.212 33.5457 25.7421 33.5564 23.6379C33.5564 23.2106 32.9302 22.4912 32.4539 22.3614L27.771 21.1173C26.4384 20.7657 24.9667 19.9922 24.0943 18.9049C22.8473 17.3525 22.8099 15.2916 23.4788 13.3714C25.2182 8.36789 33.8936 8.27593 38.539 11.9596L35.8524 15.8271C32.957 13.5931 28.5149 13.1388 28.5578 15.2483C28.6113 17.7582 38.6086 16.1841 39.0421 22.6751C39.2401 25.6772 37.6399 28.2682 34.5572 29.1174L34.5518 29.1282Z" fill="white"/>
<path d="M135.402 25.9531C133.208 30.9511 124.008 30.5022 119.202 26.3317L122.119 22.5994C124.768 24.9362 129.917 25.807 130.462 23.8922C130.591 23.4486 130.05 22.5399 129.569 22.4101L124.447 21.0308C123.093 20.6683 121.546 19.7866 120.808 18.5425C118.865 15.2538 120.524 11.0671 124.142 9.94739C128.011 8.74656 132.111 9.4768 135.488 11.9434L132.807 15.8271C130.088 13.8041 125.897 13.0631 125.544 15.0266C125.458 15.5188 126.015 16.2923 126.572 16.433L131.094 17.6176C132.614 18.0179 134.273 18.8779 135.177 20.2086C136.301 21.8584 136.259 24.0004 135.402 25.9477V25.9531Z" fill="white"/>
<path d="M193.427 23.0917C191.42 23.7083 189.402 23.665 187.267 23.665L187.256 29.1229H181.915L181.803 9.79595L190.018 9.7635C191.527 9.75809 193.079 10.0772 194.444 10.5803C196.815 11.7324 198.019 13.8528 198.067 16.4763C198.121 19.5108 196.52 22.1396 193.427 23.0862V23.0917ZM190.724 19.2566C192.234 19.1646 192.737 17.5419 192.603 16.4222C192.469 15.3025 191.516 14.4316 190.205 14.3883L187.053 14.2855V19.4783L190.724 19.2566Z" fill="white"/>
<path d="M98.8866 17.2118C98.4157 22.7616 93.6686 23.9462 88.1347 23.6487L88.0866 29.1282H82.6919V9.77423C86.1064 9.80668 89.3817 9.67686 92.6464 9.90405C96.5853 10.1745 99.3469 13.3605 98.8813 17.2172L98.8866 17.2118ZM91.4583 19.2835C92.9514 19.2024 93.5294 17.7798 93.4813 16.6168C93.4331 15.5133 92.5286 14.4423 91.196 14.3991L87.9153 14.2801V19.4782L91.4583 19.2835Z" fill="white"/>
<path d="M114.311 24.9525L118.48 28.9985L113.272 29.15L111.811 27.6625C110.339 29.2257 108.563 29.7396 106.497 29.6855C103.874 29.6152 101.477 28.0628 100.926 25.3798C100.406 22.8646 102.092 20.8469 104.356 19.8895C102.858 18.3696 102.055 15.7678 103.398 13.8313C105.437 10.8887 110.056 10.8184 112.298 13.5662C113.385 14.8969 113.379 17.0389 112.421 18.3804C111.79 19.2675 110.891 19.9166 110.002 20.6035L111.784 22.4102L113.299 20.0572H117.859L114.311 24.9525ZM108.729 17.7691C109.462 17.1146 109.537 16.1031 109.157 15.5189C108.643 14.7238 107.653 14.6535 107.053 15.0537C106.31 15.5514 106.208 16.6386 106.657 17.4067C106.861 17.7475 107.241 18.2181 107.498 18.3587C107.755 18.4994 108.402 18.0612 108.729 17.7691ZM109.317 25.1202L106.604 22.3615C105.865 22.4372 104.982 23.1945 104.854 23.9356C104.715 24.7307 105.159 25.6449 105.865 26.0127C107.123 26.6564 108.531 26.2128 109.317 25.1202Z" fill="white"/>
<path d="M52.0631 29.1013L46.6952 29.1175V14.529L40.5566 14.5182L40.5352 9.77979H58.2124L58.2177 14.5074L52.0631 14.529V29.1013Z" fill="white"/>
<path d="M200.872 29.3933C200.288 28.6631 200.374 28.3548 200.304 27.4731L199.314 29.3446L198.362 27.7598C198.153 28.4467 198.073 28.7767 197.752 29.3392L197.521 26.2127C197.714 26.1641 198.388 26.1424 198.469 26.3263L199.272 28.1709L199.951 26.7861L200.187 26.3101C200.262 26.1587 200.706 26.1749 201.011 26.1965L200.877 29.3879L200.872 29.3933Z" fill="white"/>
<path d="M196.456 27.5002L196.37 29.1932H195.937L195.857 26.8402L195.247 26.6996C195.15 26.678 195.081 26.1587 195.182 26.1641L197.393 26.2452L196.681 26.8565C196.563 26.9593 196.467 27.3325 196.456 27.5056V27.5002Z" fill="white"/>
</g>
<defs>
<clipPath id="clip0_433_615">
<rect width="201" height="39" fill="white"/>
</clipPath>
</defs>
</svg>
