<svg width="164" height="35" viewBox="0 0 164 35" fill="none" xmlns="http://www.w3.org/2000/svg">
<path d="M20.5076 11.305L32.7144 34.7998L24.4592 34.8428L16.3458 19.3656L8.26025 34.8276L0 34.7947L18.0774 0.0304171L27.3148 0L45.4149 34.7871L37.1369 34.8226L22.748 7.15817L20.5076 11.305Z" fill="white"/>
<path d="M60.1328 12.3646L53.6193 12.324L52.1814 16.1997L49.4854 16.2124L55.3483 0.438548L58.4772 0.42334L64.3477 16.1972L61.5631 16.2732L60.1328 12.3621V12.3646ZM59.3278 10.0326L56.8216 3.34339L54.3129 10.1112L59.3278 10.0326Z" fill="white"/>
<path d="M60.0902 30.9445L53.6146 30.9293L52.1565 34.8632L49.501 34.7593L55.369 19.026L58.4675 19.0159L64.3279 34.7542L61.5939 34.8759L60.0902 30.9445ZM59.351 28.6632L56.822 21.9055L54.3184 28.7113L59.351 28.6632Z" fill="white"/>
<path d="M73.7775 33.185C72.527 34.7211 70.8435 35.2001 68.8842 34.8326C65.5375 34.204 64.0161 30.7288 64.8287 27.2232C65.2667 25.3399 66.7501 23.8419 68.2893 23.3831C70.3955 22.7544 72.2561 23.198 73.8383 24.6758L73.851 18.9802L76.304 18.9548V34.754L74.2054 34.8326L73.7775 33.1875V33.185ZM73.8332 29.028C73.7851 27.4159 73.0915 26.0091 71.8308 25.4818C70.5701 24.9546 68.912 25.1422 67.9981 26.3209C66.7856 27.8873 66.7856 30.1914 67.9754 31.7503C68.9171 32.9847 70.5524 33.2103 71.8511 32.6197C73.1497 32.0291 73.8839 30.7009 73.8358 29.028H73.8332Z" fill="white"/>
<path d="M97.561 30.8887L99.9533 30.9293C99.4419 33.5629 97.1762 34.9849 94.6447 34.9697C91.0298 34.9469 88.6426 32.1789 88.8198 28.6505C88.9843 25.368 91.245 22.9701 94.6599 23.0968C96.2497 23.1551 97.8395 23.7533 98.809 24.8636C99.933 26.1487 100.32 27.8115 100.07 29.5605L91.3715 29.5706C91.3943 31.35 92.4348 32.5921 93.8271 32.881C95.4827 33.2257 97.0345 32.5363 97.5585 30.8887H97.561ZM97.6749 27.7456C97.3307 25.6823 95.9358 25.0816 94.4929 25.1018C93.0499 25.1221 91.7057 26.0144 91.4525 27.7836L97.6749 27.7481V27.7456Z" fill="white"/>
<path d="M150.11 30.9266L152.469 30.9418C152.107 33.5552 149.773 34.9214 147.31 34.9518C143.611 34.9975 141.211 32.2574 141.404 28.6276C141.573 25.444 143.751 23.0587 147.054 23.0892C148.743 23.1044 150.34 23.6848 151.401 24.9091C152.456 26.1283 152.917 27.7278 152.687 29.5477L143.978 29.5705C143.956 31.3119 145.059 32.6224 146.464 32.886C148.029 33.18 149.52 32.6072 150.11 30.9241V30.9266ZM150.284 27.7734C149.975 25.8951 148.568 24.9953 146.928 25.0942C145.558 25.1778 144.221 26.1613 144.044 27.7734H150.284Z" fill="white"/>
<path d="M108.479 12.3138L110.907 12.3696C110.368 15.102 108.046 16.3897 105.571 16.3796C101.91 16.3644 99.5786 13.5736 99.7913 9.99196C99.9811 6.77282 102.199 4.47379 105.538 4.5042C108.877 4.53462 111.618 7.34821 111.056 10.9704L102.356 10.9831C102.361 12.8537 103.475 14.111 104.988 14.3264C106.502 14.5419 107.988 14.0349 108.482 12.3113L108.479 12.3138ZM108.626 9.14282C108.267 7.14543 106.877 6.48132 105.383 6.50667C103.89 6.53201 102.644 7.49269 102.414 9.15803L108.624 9.14282H108.626Z" fill="white"/>
<path d="M162.557 34.0014C160.676 35.2992 158.064 35.2383 156.076 34.3284C154.677 33.6871 153.927 32.4729 153.915 31.0002L156.16 30.9876C156.461 31.9863 157.094 32.7822 158.183 32.9748C159.17 33.1497 160.175 33.0585 161.084 32.5464C161.413 32.3614 161.714 31.4945 161.61 31.1346C161.506 30.7746 160.818 30.3412 160.395 30.2677L156.684 29.634C155.52 29.4337 154.466 28.5466 154.259 27.6239C153.983 26.4022 154.292 25.2286 155.188 24.3769C156.433 23.1932 158.157 23.0107 159.848 23.1703C161.906 23.3655 163.782 24.676 163.818 26.828L161.506 26.8179C161.218 25.9079 160.641 25.1906 159.679 25.0613C158.874 24.9523 157.942 25.0689 157.203 25.3933C156.849 25.5505 156.456 26.3819 156.532 26.7368C156.608 27.0916 157.228 27.5783 157.628 27.6467L161.747 28.3666C162.929 28.5719 163.792 29.7227 163.942 30.6149C164.162 31.9381 163.803 33.1421 162.56 33.9989L162.557 34.0014Z" fill="white"/>
<path d="M104.439 27.9736L104.328 34.8225L101.91 34.787L101.897 23.4009L103.999 23.2209L104.315 24.6176C105.264 23.6569 106.401 23.1778 107.811 23.1018C110.325 22.9674 112.588 24.7671 112.611 27.3855L112.677 34.7921L110.193 34.8327L110.072 27.4033C110.046 25.8773 108.426 25.1549 107.168 25.2462C105.91 25.3374 104.464 26.3361 104.439 27.9736Z" fill="white"/>
<path d="M132.195 23.259V34.7947L130.101 34.8099L129.739 33.4234C128.81 34.6072 127.511 35.0254 126.018 35.0001C123.537 34.957 121.734 33.2004 121.714 30.6504L121.651 23.3021L124.122 23.2818L124.147 29.9128C124.152 31.5629 125.111 32.7999 126.673 32.8759C128.056 32.9418 129.617 31.9076 129.65 30.1916L129.779 23.3021L132.197 23.259H132.195Z" fill="white"/>
<path d="M67.6365 12.6865C68.2593 13.964 69.4592 14.3975 70.6363 14.3493C71.9198 14.2961 72.8134 13.4165 73.264 12.0833L75.6411 12.1238C75.2816 14.7878 73.2362 16.2251 70.7781 16.3974C67.3327 16.6382 64.7127 14.253 64.6114 10.7728C64.5633 9.07956 65.0114 7.43957 66.1024 6.26851C67.3125 4.97071 68.9985 4.45615 70.8414 4.53219C73.2843 4.63359 75.2892 6.09868 75.6791 8.76525L73.2438 8.78046C72.8008 7.52321 71.9451 6.83629 70.8667 6.67153C69.7225 6.49664 68.558 6.92755 67.8618 7.94145C66.9328 9.29501 66.8796 11.1378 67.6365 12.6891V12.6865Z" fill="white"/>
<path d="M97.1636 4.67675L99.7458 4.66408L95.503 16.1719L92.5184 16.2581L88.2427 4.67168L90.8526 4.6438L94.0119 13.5408L97.1636 4.67675Z" fill="white"/>
<path d="M86.2023 23.2893L88.8046 23.302L84.5568 34.8275L81.5469 34.858L77.2939 23.3147L79.8989 23.307L83.086 32.1153L86.2023 23.2893Z" fill="white"/>
<path d="M83.6659 14.0983L83.7595 16.2553L80.699 16.2021C79.3801 16.1793 78.2181 15.0412 78.213 13.68L78.1852 6.8311L76.1777 6.79308L76.241 4.68162L78.2004 4.60811L78.1852 1.44727L80.6964 1.45487V4.64107L83.4861 4.66134V6.81082L80.6863 6.81589L80.7142 13.7079C81.5597 14.1059 82.0888 14.1135 83.6709 14.0983H83.6659Z" fill="white"/>
<path d="M120.803 32.7998L120.871 34.8327L117.899 34.82C116.454 34.8124 115.322 33.6566 115.315 32.2067L115.282 25.4389L113.322 25.3755L113.332 23.2894L115.282 23.2387L115.309 20.0322H117.75L117.775 23.2336L120.555 23.2717L120.578 25.3983L117.765 25.3932L117.803 32.4678L120.798 32.7973L120.803 32.7998Z" fill="white"/>
<path d="M140.809 25.6391C138.89 25.1246 137.08 26.1537 137.05 28.0015L136.946 34.7972L134.501 34.8023L134.485 23.3832L136.65 23.2134L136.992 24.9218C137.91 23.6063 139.047 23.0537 140.867 23.3148L140.809 25.6391Z" fill="white"/>
<path d="M87.23 4.65381H84.7593V16.2402H87.23V4.65381Z" fill="white"/>
<path d="M20.0799 34.7895L12.688 34.825L16.3865 27.6643L20.0799 34.7895Z" fill="white"/>
<path d="M85.9898 3.00366C86.816 3.00366 87.4859 2.33296 87.4859 1.50561C87.4859 0.678266 86.816 0.00756836 85.9898 0.00756836C85.1635 0.00756836 84.4937 0.678266 84.4937 1.50561C84.4937 2.33296 85.1635 3.00366 85.9898 3.00366Z" fill="white"/>
</svg>
