<svg width="138" height="32" viewBox="0 0 138 32" fill="none" xmlns="http://www.w3.org/2000/svg">
<g clip-path="url(#clip0_450_1316)">
<path d="M125.589 26.6728C128.727 27.3084 131.687 26.0954 133.444 23.3154L137.236 26.9824C132.458 33.3619 122.856 33.7158 117.601 27.646C113.707 23.1477 113.626 16.6611 117.387 12.0325C119.886 8.95683 123.685 7.28512 127.671 7.46905C134.783 7.802 138.855 14.3142 137.85 21.5156L120.609 21.5342C121.095 24.2979 122.976 26.1419 125.589 26.6728ZM132.168 16.5051C131.156 13.2316 128.24 12.1699 125.489 12.7589C123.435 13.2781 121.661 14.4539 120.945 16.5564L132.171 16.5051H132.168Z" fill="white"/>
<path d="M78.9622 26.7519C82.0495 27.2036 84.8148 25.8765 86.3874 23.3177L90.2088 27.0057C85.2618 33.4015 75.8055 33.6879 70.5759 27.6576C66.6202 23.0965 66.5831 16.5191 70.4648 11.8905C73.0332 8.82644 76.8778 7.21293 80.8915 7.48767C87.9507 7.97195 91.8717 14.6355 90.7716 21.5133L73.5428 21.5226C74.0639 24.3422 76.095 26.3328 78.9622 26.7496V26.7519ZM85.1298 16.5424C84.1941 13.3177 81.1393 12.0255 78.2582 12.8171C76.2965 13.3573 74.5711 14.5517 73.9133 16.5377L85.1298 16.5424Z" fill="white"/>
<path d="M45.1925 19.6298C45.1925 26.4167 39.7198 31.9185 32.9686 31.9185C26.2174 31.9185 20.7446 26.4167 20.7446 19.6298C20.7446 12.8428 26.2174 7.34106 32.9686 7.34106C39.7198 7.34106 45.1925 12.8428 45.1925 19.6298ZM24.3576 17.5646C23.1626 23.0454 26.9747 27.9348 32.246 28.3399C35.9701 28.6263 39.5368 26.6519 41.0607 23.1082L41.429 21.6647C41.6374 20.8475 41.869 20.135 41.6791 19.4202C41.0237 20.2375 41.0144 20.4726 40.85 21.3131C40.3219 22.8614 39.1477 24.4563 38.2514 23.9394C38.0198 23.8067 37.7581 23.2153 37.7419 22.9406L37.633 21.078L37.1119 19.4552L35.4027 19.4226C34.9302 19.4132 34.3582 18.5425 34.2933 18.0535C34.115 16.7311 35.6575 16.4051 35.0646 14.8545L36.0396 14.4749C35.771 14.0838 35.4305 13.7229 34.833 13.1385L35.6343 13.2177L35.6389 12.1467L36.3801 13.511L37.0934 12.7846C36.841 12.6752 36.4866 12.5238 36.4936 12.5215C36.5005 12.5192 36.6835 12.2351 36.8734 11.9487L34.9302 11.2246L34.9673 12.1117L33.8556 11.1315C33.3577 10.9918 32.5957 11.6787 32.1834 12.4237L31.2709 11.1921L29.6196 11.6996C30.2125 12.3003 30.5229 12.6077 30.7151 13.2037L30.9351 13.8905C30.9814 14.0349 30.4418 14.128 30.3445 14.0116L30.0388 13.6391C29.3046 14.929 27.4217 14.8661 27.0882 16.7799C26.7825 16.454 26.3378 16.163 25.9881 16.2351C25.5179 16.3306 25.0177 16.9872 25.3558 17.5786L26.4559 17.1292L26.3656 17.7904C26.3517 17.8999 26.5717 18.1024 26.6597 18.1816L27.1832 18.6612C27.2735 18.7427 27.6857 18.2817 27.8224 18.291C28.7743 18.3446 30.1731 19.4156 31.0972 19.9976L31.9403 20.5285C32.1255 20.6449 31.9912 21.2898 31.8685 21.4901L30.8772 23.0919L29.8188 24.6286C29.2097 25.5134 29.0105 26.4144 30.0319 27.2479C29.0337 27.511 28.3597 26.5006 28.281 25.6274L27.959 22.0675C27.5885 21.7322 26.984 21.2153 26.9145 20.8265C26.845 20.4377 27.1507 19.5786 27.3152 19.199L24.353 17.5692L24.3576 17.5646ZM38.1264 16.1536L39.8819 16.2025L40.0533 15.5297C40.1714 15.064 38.219 15.8859 37.0216 14.4749L36.0095 15.5716L37.4894 15.3318C37.457 15.7136 37.3875 16.0372 37.5311 16.0605L38.1264 16.1513V16.1536Z" fill="white"/>
<path d="M7.37194 24.6986C10.4615 27.9116 15.4502 27.3948 18.2572 24.2888C19.0794 26.1002 19.7927 27.4693 20.8419 28.9989C17.9886 31.4972 14.1648 32.3773 10.4314 31.8138C4.81274 30.964 0.648533 26.4984 0.071844 21.0478C-0.537269 15.2853 2.8418 9.95587 8.3493 8.12817C12.6733 6.69394 17.4096 7.48556 20.8766 10.4378C19.7233 11.9605 19.0238 13.3435 18.3082 15.1945C15.3761 11.9372 10.3411 11.5577 7.30477 14.8057C4.81737 17.4669 4.74789 21.9698 7.37194 24.6986Z" fill="white"/>
<path d="M103.308 26.0605L103.359 31.1874C102.153 31.9488 101.013 32.0116 99.6258 31.9814C96.3996 31.9092 93.7756 29.5972 93.7547 26.1723L93.6644 12.6496L91.1677 12.5774L91.1839 7.49476L93.6737 7.47614V0.0186263L99.1232 0L99.1441 7.47381L103.352 7.49476L103.359 12.624H99.1325V24.9779C99.1325 25.8673 99.8991 26.6752 100.624 26.8848C101.49 27.1362 102.104 26.8335 103.306 26.0605H103.308Z" fill="white"/>
<path d="M110.101 12.6449L110.117 25.1991C110.117 26.0372 111.067 26.7916 111.708 26.9243C112.663 27.1222 113.378 26.6659 114.316 25.972L114.326 31.2247C113.133 31.9185 112.091 31.9977 110.726 31.9883C107.581 31.9651 104.737 29.7928 104.723 26.284L104.624 0.023265L110.101 0.00463867V7.47845L114.321 7.48543L114.346 12.589L110.101 12.6426V12.6449Z" fill="white"/>
<path d="M56.8699 26.0302L56.8769 31.2363C55.61 31.9371 54.5006 32.0116 53.0485 31.972C50.0122 31.8882 47.2909 29.6833 47.2793 26.2863L47.189 0.013916H52.6525L52.6617 25.1781C52.6617 26.0349 53.6391 26.7916 54.2644 26.9196C55.1561 27.1012 55.7212 26.7357 56.8699 26.0302Z" fill="white"/>
<path d="M67.739 26.0279L67.7482 31.2409C66.5694 31.9045 65.5387 31.9883 64.17 31.986C61.0318 31.9813 58.1761 29.7857 58.1622 26.2863L58.0696 0.0185547H63.5261L63.5331 25.178C63.5331 26.0279 64.5359 26.7915 65.1473 26.9173C66.046 27.1035 66.6111 26.7357 67.739 26.0279Z" fill="white"/>
</g>
<defs>
<clipPath id="clip0_450_1316">
<rect width="138" height="32" fill="white"/>
</clipPath>
</defs>
</svg>
