<svg width="261" height="32" viewBox="0 0 261 32" fill="none" xmlns="http://www.w3.org/2000/svg">
<g clip-path="url(#clip0_433_603)">
<path d="M202.097 31.1153H207.917V28.5437H205.273V14.0941H207.917V11.5225H202.097V14.4348C200.433 12.2786 197.943 10.9533 194.991 10.9533C189.438 10.9533 185.32 15.4153 185.32 21.3147C185.32 27.2142 189.438 31.6762 194.991 31.6762C197.938 31.6762 200.433 30.3509 202.097 28.1947V31.107V31.1153ZM182.56 25.8557H179.385C178.252 27.8208 176.209 29.0339 173.3 29.0339C168.879 29.0339 166.497 26.3459 166.194 22.3783H183.008V20.9782C183.008 15.004 179.194 10.9574 173.184 10.9574C167.173 10.9574 162.944 15.2325 162.944 21.3189C162.944 27.4053 167.136 31.6804 173.184 31.6804C177.604 31.6804 181.003 29.4494 182.556 25.8557M141.298 14.5885V5.3945H144.133V2.74805H135.18V5.3945H138.015V28.4647H135.18V31.1112H144.133V28.4647H141.298V17.156H155.506V28.4647H152.671V31.1112H161.628V28.4647H158.793V5.3945H161.628V2.74805H152.671V5.3945H155.506V14.5844H141.298V14.5885ZM238.561 28.5437H235.917V19.7693C235.917 15.6853 237.997 13.6413 241.662 13.6413C244.949 13.6413 247.066 15.6853 247.066 19.7693V28.5437H244.422V31.1153H252.885V28.5437H250.241V19.7693C250.241 14.8918 247.332 10.9574 242.044 10.9574C239.284 10.9574 237.246 12.0169 235.922 13.7202V2.74805H230.102V5.31972H232.746V28.5437H230.102V31.1153H238.566V28.5437H238.561ZM188.57 21.3189C188.57 16.8569 191.405 13.6413 195.411 13.6413C199.416 13.6413 202.209 16.9317 202.209 21.3189C202.209 25.7061 199.453 28.9965 195.411 28.9965C191.368 28.9965 188.57 25.7809 188.57 21.3189ZM173.188 13.6039C177.343 13.6039 179.497 16.5536 179.837 19.844H166.198C166.576 16.2503 168.996 13.6039 173.188 13.6039ZM224.353 26.0468V14.0941H228.322V11.5225H224.353V6.52869H221.178V11.5225H218.156V14.0941H221.178V26.1963C221.178 29.6779 222.726 31.3771 226.391 31.3771C226.96 31.3771 227.865 31.2649 228.317 31.1112V28.5395C227.711 28.6517 227.184 28.6891 226.694 28.6891C225.109 28.6891 224.349 28.1199 224.349 26.0426M216.492 31.3812C217.023 31.3812 217.853 31.2691 218.269 31.1153V28.5437C217.741 28.6558 217.285 28.6932 216.87 28.6932C215.508 28.6932 214.869 27.9745 214.869 25.8557V2.74805H209.05V5.31972H211.694V26.0094C211.694 29.5283 213.093 31.3812 216.492 31.3812Z" fill="white"/>
<path d="M116.132 22.2288C116.585 24.3476 117.797 25.1038 120.287 25.1038C122.479 25.1038 123.687 24.3102 123.687 23.0597C123.687 21.2816 122.064 21.132 118.697 20.2596C114.767 19.2375 112.235 18.3692 111.064 17.5342C108.873 15.9845 107.814 13.7909 107.814 10.9907C107.814 5.50674 112.123 1.95044 119.64 1.95044C127.157 1.95044 131.241 5.16606 131.731 10.8786H123.155C122.852 9.17521 121.682 8.38169 119.49 8.38169C117.564 8.38169 116.618 9.02564 116.618 10.3094C116.618 11.8217 118.091 12.0876 120.81 12.8063C124.326 13.7161 127.119 14.2812 128.896 15.4901C131.39 17.1561 132.523 19.196 132.523 22.1083C132.523 28.2737 128.103 31.8674 119.901 31.8674C112.305 31.8674 107.847 28.2737 107.279 22.2247H116.12L116.132 22.2288Z" fill="#E31937"/>
<path d="M82.7648 20.0726C82.275 27.5217 77.3606 31.8715 69.2377 31.8715C60.2057 31.8715 54.6895 26.1216 54.6895 16.9318C54.6895 7.74188 60.2472 1.95459 69.0509 1.95459C77.2485 1.95459 82.0883 6.1133 82.6154 13.4544H73.9612C73.6955 10.5794 72.0726 9.06719 69.163 9.06719C65.61 9.06719 63.8335 11.6762 63.8335 16.9359C63.8335 22.1956 65.7594 24.7631 69.4245 24.7631C72.1847 24.7631 73.9197 23.0971 74.1853 20.0726H82.7607H82.7648Z" fill="#E31937"/>
<path d="M80.8389 2.74805H90.0991L94.86 21.053L99.9612 2.74805H108.877L99.3552 31.0779H90.3232L80.8389 2.74805Z" fill="#E31937"/>
<path d="M25.63 1.99194C24.555 1.99194 23.4841 2.40324 22.6664 3.22585L16.7309 9.16686C15.0955 10.8038 15.0955 13.4668 16.735 15.1079L33.4832 31.8757L50.2313 15.1079C51.8708 13.4668 51.8666 10.8079 50.2313 9.16686L44.2999 3.23C43.4822 2.4074 42.4072 1.9961 41.3363 1.9961C40.2654 1.9961 39.1821 2.41155 38.3602 3.23831L33.4832 8.11991L28.6019 3.22585C27.7842 2.40324 26.7092 1.99194 25.63 1.99194Z" fill="#E31937"/>
<path d="M257.967 31.1941C256.185 31.1941 254.92 29.8619 254.92 28.096C254.92 26.2326 256.326 24.9978 257.967 24.9978C259.607 24.9978 260.996 26.2326 260.996 28.096C260.996 29.9593 259.589 31.1941 257.967 31.1941ZM257.967 25.5333C256.627 25.5333 255.583 26.5867 255.583 28.096C255.583 29.5034 256.494 30.6586 257.967 30.6586C259.293 30.6586 260.332 29.6141 260.332 28.096C260.332 26.5779 259.289 25.5333 257.967 25.5333ZM257.356 29.8708H256.795V26.4407H258.095C258.922 26.4407 259.346 26.7284 259.346 27.4277C259.346 28.0473 258.966 28.304 258.453 28.366L259.413 29.8752H258.776L257.891 28.4102H257.361V29.8752L257.356 29.8708ZM257.984 27.9234C258.409 27.9234 258.78 27.8835 258.78 27.3834C258.78 26.9674 258.373 26.9187 258.037 26.9187H257.356V27.9234H257.984Z" fill="white"/>
</g>
<defs>
<clipPath id="clip0_433_603">
<rect width="261" height="31.8713" fill="white"/>
</clipPath>
</defs>
</svg>
