<svg width="140" height="38" viewBox="0 0 140 38" fill="none" xmlns="http://www.w3.org/2000/svg">
<g clip-path="url(#clip0_450_1224)">
<path d="M139.61 32.2442H137.828C137.694 32.2442 137.613 32.325 137.613 32.4583V32.5391C137.613 32.6724 137.694 32.7532 137.828 32.7532H139.288V34.7364C139.288 35.9441 138.857 36.453 137.67 36.453C136.482 36.453 136.051 35.9441 136.051 34.7364V29.5905C136.051 28.3828 136.482 27.8739 137.67 27.8739C138.857 27.8739 139.288 28.3828 139.288 29.5905V30.3418C139.288 30.4751 139.37 30.5559 139.504 30.5559H139.614C139.748 30.5559 139.829 30.4751 139.829 30.3418V29.3482C139.829 28.088 139.158 27.365 137.727 27.365H137.617C136.185 27.365 135.51 28.088 135.51 29.3482V34.9787C135.51 36.3076 136.185 36.9619 137.617 36.9619H137.727C139.158 36.9619 139.829 36.2955 139.829 34.9787V32.4583C139.829 32.325 139.748 32.2442 139.614 32.2442M129.593 36.6388V28.7746L132.887 36.6953C132.928 36.8044 133.009 36.8569 133.131 36.8569H133.278C133.412 36.8569 133.493 36.7761 133.493 36.6428V27.6922C133.493 27.5589 133.412 27.4781 133.278 27.4781H133.168C133.034 27.4781 132.952 27.5589 132.952 27.6922V35.5563L129.687 27.6356C129.646 27.5266 129.565 27.474 129.443 27.474H129.268C129.133 27.474 129.052 27.5548 129.052 27.6881V36.6388C129.052 36.7721 129.133 36.8529 129.268 36.8529H129.377C129.512 36.8529 129.593 36.7721 129.593 36.6388ZM126.937 36.6388V27.6881C126.937 27.5548 126.856 27.474 126.722 27.474H126.612C126.478 27.474 126.396 27.5548 126.396 27.6881V36.6388C126.396 36.7721 126.478 36.8529 126.612 36.8529H126.722C126.856 36.8529 126.937 36.7721 126.937 36.6388ZM119.971 36.6388V28.7746L123.265 36.6953C123.306 36.8044 123.387 36.8569 123.509 36.8569H123.655C123.79 36.8569 123.871 36.7761 123.871 36.6428V27.6922C123.871 27.5589 123.79 27.4781 123.655 27.4781H123.55C123.416 27.4781 123.334 27.5589 123.334 27.6922V35.5563L120.069 27.6356C120.028 27.5266 119.947 27.474 119.825 27.474H119.65C119.515 27.474 119.434 27.5548 119.434 27.6881V36.6388C119.434 36.7721 119.515 36.8529 119.65 36.8529H119.759C119.894 36.8529 119.975 36.7721 119.975 36.6388M113.468 36.6388V28.7746L116.762 36.6953C116.803 36.8044 116.884 36.8569 117.006 36.8569H117.153C117.287 36.8569 117.368 36.7761 117.368 36.6428V27.6922C117.368 27.5589 117.287 27.4781 117.153 27.4781H117.047C116.913 27.4781 116.831 27.5589 116.831 27.6922V35.5563L113.566 27.6356C113.525 27.5266 113.444 27.474 113.322 27.474H113.147C113.013 27.474 112.931 27.5548 112.931 27.6881V36.6388C112.931 36.7721 113.013 36.8529 113.147 36.8529H113.257C113.391 36.8529 113.472 36.7721 113.472 36.6388M107.693 33.8518L108.934 28.4515L110.174 33.8518H107.693ZM111.374 36.6105L109.259 27.6598C109.235 27.5266 109.149 27.474 109.031 27.474H108.844C108.722 27.474 108.641 27.5266 108.616 27.6598L106.526 36.6105C106.498 36.76 106.567 36.8529 106.713 36.8529H106.823C106.945 36.8529 107.026 36.8004 107.051 36.6671L107.575 34.3607H110.296L110.821 36.6671C110.849 36.8004 110.93 36.8529 111.048 36.8529H111.183C111.329 36.8529 111.398 36.76 111.37 36.6105M105.395 36.3439H102.711V27.6841C102.711 27.5508 102.63 27.47 102.496 27.47H102.386C102.252 27.47 102.17 27.5508 102.17 27.6841V36.6348C102.17 36.7681 102.252 36.8488 102.386 36.8488H105.395C105.53 36.8488 105.611 36.7681 105.611 36.6348V36.554C105.611 36.4207 105.53 36.3399 105.395 36.3399M100.328 30.6205C100.328 31.8282 99.8971 32.3371 98.7096 32.3371H97.1317V27.9789H98.7096C99.8971 27.9789 100.328 28.4879 100.328 29.6956V30.6205ZM98.7625 27.47H96.8064C96.6722 27.47 96.5908 27.5508 96.5908 27.6841V36.6348C96.5908 36.7681 96.6722 36.8488 96.8064 36.8488H96.9121C97.0463 36.8488 97.1276 36.7681 97.1276 36.6348V32.842H98.7625C100.194 32.842 100.865 32.1473 100.865 30.8588V29.4492C100.865 28.1607 100.194 27.466 98.7625 27.466" fill="white"/>
<path d="M139.61 32.2442H137.828C137.694 32.2442 137.613 32.325 137.613 32.4583V32.5391C137.613 32.6724 137.694 32.7532 137.828 32.7532H139.288V34.7364C139.288 35.9441 138.857 36.453 137.67 36.453C136.482 36.453 136.051 35.9441 136.051 34.7364V29.5905C136.051 28.3828 136.482 27.8739 137.67 27.8739C138.857 27.8739 139.288 28.3828 139.288 29.5905V30.3418C139.288 30.4751 139.37 30.5559 139.504 30.5559H139.614C139.748 30.5559 139.829 30.4751 139.829 30.3418V29.3482C139.829 28.088 139.158 27.365 137.727 27.365H137.617C136.185 27.365 135.51 28.088 135.51 29.3482V34.9787C135.51 36.3076 136.185 36.9619 137.617 36.9619H137.727C139.158 36.9619 139.829 36.2955 139.829 34.9787V32.4583C139.829 32.325 139.748 32.2442 139.614 32.2442M119.971 36.6388V28.7746L123.265 36.6953C123.306 36.8044 123.387 36.8569 123.509 36.8569H123.655C123.79 36.8569 123.871 36.7761 123.871 36.6428V27.6922C123.871 27.5589 123.79 27.4781 123.655 27.4781H123.55C123.416 27.4781 123.334 27.5589 123.334 27.6922V35.5563L120.069 27.6356C120.028 27.5266 119.947 27.474 119.825 27.474H119.65C119.515 27.474 119.434 27.5548 119.434 27.6881V36.6388C119.434 36.7721 119.515 36.8529 119.65 36.8529H119.759C119.894 36.8529 119.975 36.7721 119.975 36.6388M113.468 36.6388V28.7746L116.762 36.6953C116.803 36.8044 116.884 36.8569 117.006 36.8569H117.153C117.287 36.8569 117.368 36.7761 117.368 36.6428V27.6922C117.368 27.5589 117.287 27.4781 117.153 27.4781H117.047C116.913 27.4781 116.831 27.5589 116.831 27.6922V35.5563L113.566 27.6356C113.525 27.5266 113.444 27.474 113.322 27.474H113.147C113.013 27.474 112.931 27.5548 112.931 27.6881V36.6388C112.931 36.7721 113.013 36.8529 113.147 36.8529H113.257C113.391 36.8529 113.472 36.7721 113.472 36.6388M111.374 36.6105L109.259 27.6598C109.235 27.5266 109.149 27.474 109.031 27.474H108.844C108.722 27.474 108.641 27.5266 108.616 27.6598L106.526 36.6105C106.498 36.76 106.567 36.8529 106.713 36.8529H106.823C106.945 36.8529 107.026 36.8004 107.051 36.6671L107.575 34.3607H110.296L110.821 36.6671C110.849 36.8004 110.93 36.8529 111.048 36.8529H111.183C111.329 36.8529 111.398 36.76 111.37 36.6105M105.395 36.3439H102.711V27.6841C102.711 27.5508 102.63 27.47 102.496 27.47H102.386C102.252 27.47 102.17 27.5508 102.17 27.6841V36.6348C102.17 36.7681 102.252 36.8488 102.386 36.8488H105.395C105.53 36.8488 105.611 36.7681 105.611 36.6348V36.554C105.611 36.4207 105.53 36.3399 105.395 36.3399M98.7625 27.47H96.8064C96.6722 27.47 96.5908 27.5508 96.5908 27.6841V36.6348C96.5908 36.7681 96.6722 36.8488 96.8064 36.8488H96.9121C97.0463 36.8488 97.1276 36.7681 97.1276 36.6348V32.842H98.7625C100.194 32.842 100.865 32.1473 100.865 30.8588V29.4492C100.865 28.1607 100.194 27.466 98.7625 27.466M129.593 36.6388V28.7746L132.887 36.6953C132.928 36.8044 133.009 36.8569 133.131 36.8569H133.278C133.412 36.8569 133.493 36.7761 133.493 36.6428V27.6922C133.493 27.5589 133.412 27.4781 133.278 27.4781H133.168C133.034 27.4781 132.952 27.5589 132.952 27.6922V35.5563L129.687 27.6356C129.646 27.5266 129.565 27.474 129.443 27.474H129.268C129.133 27.474 129.052 27.5548 129.052 27.6881V36.6388C129.052 36.7721 129.133 36.8529 129.268 36.8529H129.377C129.512 36.8529 129.593 36.7721 129.593 36.6388ZM126.937 36.6388V27.6881C126.937 27.5548 126.856 27.474 126.722 27.474H126.612C126.478 27.474 126.396 27.5548 126.396 27.6881V36.6388C126.396 36.7721 126.478 36.8529 126.612 36.8529H126.722C126.856 36.8529 126.937 36.7721 126.937 36.6388ZM107.693 33.8518L108.934 28.4515L110.174 33.8518H107.693ZM100.328 30.6205C100.328 31.8282 99.8971 32.3371 98.7096 32.3371H97.1317V27.9789H98.7096C99.8971 27.9789 100.328 28.4879 100.328 29.6956V30.6205Z" stroke="white" stroke-width="0.5" stroke-miterlimit="10"/>
<path d="M139.671 23.3218H136.869V14.2863C136.869 14.1449 136.783 14.0601 136.645 14.0601H136.531C136.389 14.0601 136.307 14.1449 136.307 14.2863V23.6288C136.307 23.7701 136.393 23.8509 136.531 23.8509H139.671C139.813 23.8509 139.898 23.7661 139.898 23.6288V23.5439C139.898 23.4066 139.813 23.3218 139.671 23.3218ZM130.325 20.7206L131.618 15.082L132.912 20.7206H130.325ZM134.164 23.6005L131.956 14.258C131.928 14.1166 131.842 14.0641 131.716 14.0641H131.521C131.395 14.0641 131.309 14.1207 131.281 14.258L129.101 23.6005C129.073 23.754 129.142 23.8509 129.296 23.8509H129.41C129.536 23.8509 129.622 23.7944 129.65 23.653L130.199 21.2457H133.042L133.591 23.653C133.619 23.7944 133.705 23.8509 133.831 23.8509H133.973C134.128 23.8509 134.197 23.754 134.168 23.6005M126.901 20.0057H126.787C126.645 20.0057 126.563 20.0905 126.563 20.2319V21.6456C126.563 22.8896 126.14 23.4349 124.916 23.4349C123.692 23.4349 123.269 22.8896 123.269 21.6456V16.2735C123.269 15.0295 123.692 14.4842 124.916 14.4842C126.14 14.4842 126.563 15.0295 126.563 16.2735V17.4489C126.563 17.5903 126.649 17.6751 126.787 17.6751H126.901C127.043 17.6751 127.125 17.5903 127.125 17.4489V16.0231C127.125 14.7064 126.421 13.9551 124.929 13.9551H124.9C123.408 13.9551 122.704 14.7104 122.704 16.0231V21.9C122.704 23.2854 123.408 23.968 124.9 23.968H124.929C126.421 23.968 127.125 23.2693 127.125 21.9V20.2359C127.125 20.0945 127.039 20.0097 126.901 20.0097M120.024 23.6288V14.2863C120.024 14.1449 119.939 14.0601 119.8 14.0601H119.686C119.548 14.0601 119.463 14.1449 119.463 14.2863V23.6288C119.463 23.7701 119.548 23.855 119.686 23.855H119.8C119.943 23.855 120.024 23.7701 120.024 23.6288ZM112.659 23.6288V15.4172L116.099 23.6853C116.14 23.7984 116.226 23.8509 116.352 23.8509H116.506C116.648 23.8509 116.73 23.7661 116.73 23.6247V14.2822C116.73 14.1409 116.644 14.0561 116.506 14.0561H116.392C116.25 14.0561 116.169 14.1409 116.169 14.2822V22.4938L112.761 14.2257C112.72 14.1126 112.635 14.0601 112.508 14.0601H112.325C112.183 14.0601 112.102 14.1449 112.102 14.2863V23.6288C112.102 23.7701 112.187 23.855 112.325 23.855H112.439C112.578 23.855 112.663 23.7701 112.663 23.6288M109.365 23.6288V14.2863C109.365 14.1449 109.279 14.0601 109.141 14.0601H109.031C108.889 14.0601 108.808 14.1449 108.808 14.2863V23.6288C108.808 23.7701 108.893 23.855 109.031 23.855H109.141C109.283 23.855 109.365 23.7701 109.365 23.6288ZM106.925 23.3218H104.123V14.2863C104.123 14.1449 104.037 14.0601 103.899 14.0601H103.785C103.643 14.0601 103.561 14.1449 103.561 14.2863V23.6288C103.561 23.7701 103.647 23.8509 103.785 23.8509H106.925C107.067 23.8509 107.152 23.7661 107.152 23.6288V23.5439C107.152 23.4066 107.067 23.3218 106.925 23.3218ZM100.772 20.0057H100.658C100.515 20.0057 100.434 20.0905 100.434 20.2319V21.6456C100.434 22.8896 100.011 23.4349 98.7871 23.4349C97.5629 23.4349 97.14 22.8896 97.14 21.6456V16.2735C97.14 15.0295 97.5629 14.4842 98.7871 14.4842C100.011 14.4842 100.434 15.0295 100.434 16.2735V17.4489C100.434 17.5903 100.52 17.6751 100.658 17.6751H100.772C100.914 17.6751 100.995 17.5903 100.995 17.4489V16.0231C100.995 14.7064 100.292 13.9551 98.7993 13.9551H98.7708C97.2783 13.9551 96.5747 14.7104 96.5747 16.0231V21.9C96.5747 23.2854 97.2783 23.968 98.7708 23.968H98.7993C100.292 23.968 100.995 23.2693 100.995 21.9V20.2359C100.995 20.0945 100.91 20.0097 100.772 20.0097" fill="white"/>
<path d="M134.164 23.6005L131.956 14.258C131.928 14.1166 131.842 14.0641 131.716 14.0641H131.521C131.395 14.0641 131.309 14.1207 131.281 14.258L129.101 23.6005C129.073 23.754 129.142 23.8509 129.296 23.8509H129.41C129.536 23.8509 129.622 23.7944 129.65 23.653L130.199 21.2457H133.042L133.591 23.653C133.619 23.7944 133.705 23.8509 133.831 23.8509H133.973C134.128 23.8509 134.197 23.754 134.168 23.6005M126.901 20.0057H126.787C126.645 20.0057 126.563 20.0905 126.563 20.2319V21.6456C126.563 22.8896 126.14 23.4349 124.916 23.4349C123.692 23.4349 123.269 22.8896 123.269 21.6456V16.2735C123.269 15.0295 123.692 14.4842 124.916 14.4842C126.14 14.4842 126.563 15.0295 126.563 16.2735V17.4489C126.563 17.5903 126.649 17.6751 126.787 17.6751H126.901C127.043 17.6751 127.125 17.5903 127.125 17.4489V16.0231C127.125 14.7064 126.421 13.9551 124.929 13.9551H124.9C123.408 13.9551 122.704 14.7104 122.704 16.0231V21.9C122.704 23.2854 123.408 23.968 124.9 23.968H124.929C126.421 23.968 127.125 23.2693 127.125 21.9V20.2359C127.125 20.0945 127.039 20.0097 126.901 20.0097M112.659 23.6288V15.4172L116.099 23.6853C116.14 23.7984 116.226 23.8509 116.352 23.8509H116.506C116.648 23.8509 116.73 23.7661 116.73 23.6247V14.2822C116.73 14.1409 116.644 14.0561 116.506 14.0561H116.392C116.25 14.0561 116.169 14.1409 116.169 14.2822V22.4938L112.761 14.2257C112.72 14.1126 112.635 14.0601 112.508 14.0601H112.325C112.183 14.0601 112.102 14.1449 112.102 14.2863V23.6288C112.102 23.7701 112.187 23.855 112.325 23.855H112.439C112.578 23.855 112.663 23.7701 112.663 23.6288M100.772 20.0057H100.658C100.515 20.0057 100.434 20.0905 100.434 20.2319V21.6456C100.434 22.8896 100.011 23.4349 98.7871 23.4349C97.5629 23.4349 97.14 22.8896 97.14 21.6456V16.2735C97.14 15.0295 97.5629 14.4842 98.7871 14.4842C100.011 14.4842 100.434 15.0295 100.434 16.2735V17.4489C100.434 17.5903 100.52 17.6751 100.658 17.6751H100.772C100.914 17.6751 100.995 17.5903 100.995 17.4489V16.0231C100.995 14.7064 100.292 13.9551 98.7993 13.9551H98.7708C97.2783 13.9551 96.5747 14.7104 96.5747 16.0231V21.9C96.5747 23.2854 97.2783 23.968 98.7708 23.968H98.7993C100.292 23.968 100.995 23.2693 100.995 21.9V20.2359C100.995 20.0945 100.91 20.0097 100.772 20.0097M139.671 23.3218H136.869V14.2863C136.869 14.1449 136.783 14.0601 136.645 14.0601H136.531C136.389 14.0601 136.307 14.1449 136.307 14.2863V23.6288C136.307 23.7701 136.393 23.8509 136.531 23.8509H139.671C139.813 23.8509 139.898 23.7661 139.898 23.6288V23.5439C139.898 23.4066 139.813 23.3218 139.671 23.3218ZM130.325 20.7206L131.618 15.082L132.912 20.7206H130.325ZM120.024 23.6288V14.2863C120.024 14.1449 119.939 14.0601 119.8 14.0601H119.686C119.548 14.0601 119.463 14.1449 119.463 14.2863V23.6288C119.463 23.7701 119.548 23.855 119.686 23.855H119.8C119.943 23.855 120.024 23.7701 120.024 23.6288ZM109.365 23.6288V14.2863C109.365 14.1449 109.279 14.0601 109.141 14.0601H109.031C108.889 14.0601 108.808 14.1449 108.808 14.2863V23.6288C108.808 23.7701 108.893 23.855 109.031 23.855H109.141C109.283 23.855 109.365 23.7701 109.365 23.6288ZM106.925 23.3218H104.123V14.2863C104.123 14.1449 104.037 14.0601 103.899 14.0601H103.785C103.643 14.0601 103.561 14.1449 103.561 14.2863V23.6288C103.561 23.7701 103.647 23.8509 103.785 23.8509H106.925C107.067 23.8509 107.152 23.7661 107.152 23.6288V23.5439C107.152 23.4066 107.067 23.3218 106.925 23.3218Z" stroke="white" stroke-width="0.5" stroke-miterlimit="10"/>
<path d="M135.543 10.4209V2.2134L138.983 10.4774C139.024 10.5905 139.109 10.6471 139.235 10.6471H139.39C139.532 10.6471 139.613 10.5623 139.613 10.4209V1.07841C139.613 0.937042 139.528 0.856259 139.39 0.856259H139.276C139.134 0.856259 139.052 0.941081 139.052 1.07841V9.28993L135.64 1.02186C135.6 0.908768 135.514 0.856259 135.388 0.856259H135.205C135.063 0.856259 134.981 0.941081 134.981 1.07841V10.4209C134.981 10.5623 135.067 10.6471 135.205 10.6471H135.319C135.457 10.6471 135.543 10.5623 135.543 10.4209ZM129.715 5.82033H128.068V1.38538H129.715C130.955 1.38538 131.407 1.91855 131.407 3.17875V4.031C131.407 5.29121 130.955 5.82437 129.715 5.82437M132.208 10.3805L130.561 6.26867C131.516 6.04652 131.968 5.35987 131.968 4.28143V2.92429C131.968 1.5833 131.264 0.856259 129.772 0.856259H127.73C127.588 0.856259 127.507 0.941081 127.507 1.07841V10.4209C127.507 10.5623 127.592 10.6471 127.73 10.6471H127.844C127.986 10.6471 128.068 10.5623 128.068 10.4209V6.34946H129.772H129.967L131.614 10.4613C131.655 10.5865 131.74 10.643 131.866 10.643H132.021C132.187 10.643 132.261 10.5299 132.204 10.3765M124.912 10.4249V10.3401C124.912 10.1987 124.827 10.118 124.684 10.118H121.671V5.94555H124.204C124.347 5.94555 124.432 5.86072 124.432 5.72339V5.63857C124.432 5.4972 124.347 5.41642 124.204 5.41642H121.671V1.38538H124.644C124.786 1.38538 124.867 1.30056 124.867 1.16323V1.07841C124.867 0.937042 124.782 0.856259 124.644 0.856259H121.333C121.191 0.856259 121.109 0.941081 121.109 1.07841V10.4209C121.109 10.5623 121.195 10.643 121.333 10.643H124.684C124.827 10.643 124.912 10.5582 124.912 10.4209M117.502 3.17875V8.32862C117.502 9.58883 117.051 10.122 115.81 10.122H114.192V1.38942H115.81C117.051 1.38942 117.502 1.92259 117.502 3.18279M115.867 0.856259H113.854C113.712 0.856259 113.631 0.941081 113.631 1.07841V10.4209C113.631 10.5623 113.716 10.643 113.854 10.643H115.867C117.36 10.643 118.063 9.916 118.063 8.57501V2.92429C118.063 1.5833 117.36 0.856259 115.867 0.856259ZM106.644 8.43768V3.06566C106.644 1.80545 107.095 1.27633 108.336 1.27633C109.576 1.27633 110.027 1.80949 110.027 3.06566V8.43768C110.027 9.69788 109.576 10.231 108.336 10.231C107.095 10.231 106.644 9.69788 106.644 8.43768ZM106.083 2.81119V8.6881C106.083 10.0291 106.786 10.7561 108.279 10.7561H108.393C109.885 10.7561 110.589 10.0291 110.589 8.6881V2.81119C110.589 1.46617 109.885 0.743164 108.393 0.743164H108.279C106.786 0.743164 106.083 1.45405 106.083 2.81119ZM102.475 2.33861V10.4209C102.475 10.5623 102.561 10.6471 102.699 10.6471H102.813C102.951 10.6471 103.037 10.5623 103.037 10.4209V1.07841C103.037 0.937042 102.951 0.856259 102.813 0.856259H102.646C102.52 0.856259 102.422 0.924924 102.378 1.03802L99.7994 7.8924L97.2658 1.03802C97.2251 0.924924 97.1234 0.856259 96.9974 0.856259H96.855C96.7127 0.856259 96.6313 0.941081 96.6313 1.07841V10.4209C96.6313 10.5623 96.7168 10.6471 96.855 10.6471H96.9404C97.0828 10.6471 97.1641 10.5623 97.1641 10.4209V2.33861L99.5879 8.75677C99.6286 8.86986 99.714 8.93853 99.8279 8.93853C99.9255 8.93853 100.011 8.86583 100.056 8.75677L102.479 2.33861H102.475Z" fill="white"/>
<path d="M129.715 5.82033H128.068V1.38538H129.715C130.955 1.38538 131.407 1.91855 131.407 3.17875V4.031C131.407 5.29121 130.955 5.82437 129.715 5.82437M132.208 10.3805L130.561 6.26867C131.516 6.04652 131.968 5.35987 131.968 4.28143V2.92429C131.968 1.5833 131.264 0.856259 129.772 0.856259H127.73C127.588 0.856259 127.507 0.941081 127.507 1.07841V10.4209C127.507 10.5623 127.592 10.6471 127.73 10.6471H127.844C127.986 10.6471 128.068 10.5623 128.068 10.4209V6.34946H129.772H129.967L131.614 10.4613C131.655 10.5865 131.74 10.643 131.866 10.643H132.021C132.187 10.643 132.261 10.5299 132.204 10.3765M124.912 10.4249V10.3401C124.912 10.1987 124.827 10.118 124.684 10.118H121.671V5.94555H124.204C124.347 5.94555 124.432 5.86072 124.432 5.72339V5.63857C124.432 5.4972 124.347 5.41642 124.204 5.41642H121.671V1.38538H124.644C124.786 1.38538 124.867 1.30056 124.867 1.16323V1.07841C124.867 0.937042 124.782 0.856259 124.644 0.856259H121.333C121.191 0.856259 121.109 0.941081 121.109 1.07841V10.4209C121.109 10.5623 121.195 10.643 121.333 10.643H124.684C124.827 10.643 124.912 10.5582 124.912 10.4209M117.502 3.17875V8.32862C117.502 9.58883 117.051 10.122 115.81 10.122H114.192V1.38942H115.81C117.051 1.38942 117.502 1.92259 117.502 3.18279M135.543 10.4209V2.2134L138.983 10.4774C139.024 10.5905 139.109 10.6471 139.235 10.6471H139.39C139.532 10.6471 139.613 10.5623 139.613 10.4209V1.07841C139.613 0.937042 139.528 0.856259 139.39 0.856259H139.276C139.134 0.856259 139.052 0.941081 139.052 1.07841V9.28993L135.64 1.02186C135.6 0.908768 135.514 0.856259 135.388 0.856259H135.205C135.063 0.856259 134.981 0.941081 134.981 1.07841V10.4209C134.981 10.5623 135.067 10.6471 135.205 10.6471H135.319C135.457 10.6471 135.543 10.5623 135.543 10.4209ZM115.867 0.856259H113.854C113.712 0.856259 113.631 0.941081 113.631 1.07841V10.4209C113.631 10.5623 113.716 10.643 113.854 10.643H115.867C117.36 10.643 118.063 9.916 118.063 8.57501V2.92429C118.063 1.5833 117.36 0.856259 115.867 0.856259ZM106.644 8.43768V3.06566C106.644 1.80545 107.095 1.27633 108.336 1.27633C109.576 1.27633 110.027 1.80949 110.027 3.06566V8.43768C110.027 9.69788 109.576 10.231 108.336 10.231C107.095 10.231 106.644 9.69788 106.644 8.43768ZM106.083 2.81119V8.6881C106.083 10.0291 106.786 10.7561 108.279 10.7561H108.393C109.885 10.7561 110.589 10.0291 110.589 8.6881V2.81119C110.589 1.46617 109.885 0.743164 108.393 0.743164H108.279C106.786 0.743164 106.083 1.45405 106.083 2.81119ZM102.475 2.33861V10.4209C102.475 10.5623 102.561 10.6471 102.699 10.6471H102.813C102.951 10.6471 103.037 10.5623 103.037 10.4209V1.07841C103.037 0.937042 102.951 0.856259 102.813 0.856259H102.646C102.52 0.856259 102.422 0.924924 102.378 1.03802L99.7994 7.8924L97.2658 1.03802C97.2251 0.924924 97.1234 0.856259 96.9974 0.856259H96.855C96.7127 0.856259 96.6313 0.941081 96.6313 1.07841V10.4209C96.6313 10.5623 96.7168 10.6471 96.855 10.6471H96.9404C97.0828 10.6471 97.1641 10.5623 97.1641 10.4209V2.33861L99.5879 8.75677C99.6286 8.86986 99.714 8.93853 99.8279 8.93853C99.9255 8.93853 100.011 8.86583 100.056 8.75677L102.479 2.33861H102.475Z" stroke="white" stroke-width="0.5" stroke-miterlimit="10"/>
<path d="M61.1689 4.43503H65.8092C69.693 4.43503 71.7426 6.9514 71.7426 10.9178C71.7426 15.5789 69.5831 17.7762 65.3781 17.7762H61.1689V4.43503ZM56.6914 37.063H61.1689V21.5245H65.862C72.6048 21.5245 76.2731 17.5056 76.2731 10.9703C76.2731 4.27346 72.2266 0.682689 66.4029 0.682689H56.6914V37.059V37.063ZM47.846 26.8844C47.6834 28.6536 47.0367 33.7429 42.3436 33.7429C37.0568 33.7429 36.1946 26.2422 36.1946 18.6891C36.1946 11.4025 37.1137 4.11594 42.5592 4.11594C47.5207 4.11594 47.6834 9.52835 47.7932 10.7603H52.2707C52.2179 8.40144 51.6241 0.153564 42.669 0.153564C34.4703 0.153564 31.5015 7.86827 31.5015 18.6891C31.5015 27.5832 32.3637 37.6002 42.2379 37.6002C51.3557 37.6002 52.2179 28.9767 52.3765 26.8844H47.846ZM21.9527 37.063H26.3773V0.686728H19.7403C16.9911 11.455 13.7011 25.7575 12.9975 29.8815H12.9447C12.0825 25.0062 9.43907 11.8791 6.68991 0.686728H0V37.063H4.20915V22.8655C4.20915 16.5968 4.04648 8.66802 3.83094 4.43503H3.99361C5.28686 11.2409 8.52404 26.8844 10.6266 37.063H14.8357C17.6947 25.4909 20.7692 10.9178 22.1194 4.54408H22.1723C22.0625 8.40144 21.9567 15.2599 21.9567 21.9567V37.063H21.9527Z" fill="white"/>
<path d="M85.6997 0.403809V37.596" stroke="#BFF0FB" stroke-width="2" stroke-linecap="round"/>
</g>
<defs>
<clipPath id="clip0_450_1224">
<rect width="140" height="38" fill="white"/>
</clipPath>
</defs>
</svg>
